<svg width="120" height="122" viewBox="0 0 120 122" fill="none" xmlns="http://www.w3.org/2000/svg">
<path fill-rule="evenodd" clip-rule="evenodd" d="M53.5841 1.22046L54.1339 14.124L62.5077 13.7672L62.427 11.8723L56.4534 12.1268L56.2927 8.355L60.8405 8.16121L60.7636 6.35651L56.2158 6.5503L56.0651 3.01311L61.7318 2.77164L61.6511 0.876709L53.5841 1.22046ZM42.7819 16.9257L39.2544 4.5015L41.5655 3.84536L43.164 9.47535L46.3218 2.47621L48.8066 1.77073L45.3504 9.17381L52.5996 14.1383L49.8715 14.9129L43.4452 10.4658L45.0929 16.2696L42.7819 16.9257ZM28.1159 10.134L30.9899 23.4428L32.9317 22.2913L32.1711 19.0258L36.412 16.5108L38.928 18.7353L41.0718 17.464L30.8189 8.53101L28.1159 10.134ZM31.7591 17.2334L30.3472 11.0994L35.0368 15.2896L31.7591 17.2334ZM19.5691 19.3267L27.0617 27.3703L28.8287 25.7244L21.336 17.6808L23.9601 15.2364L22.6704 13.8519L15.6553 20.3865L16.945 21.771L19.5691 19.3267ZM71.6718 15.375L73.189 9.98485L71.0502 1.78296L73.6062 2.50238L74.9569 8.43707L79.1354 4.05867L81.3958 4.69489L75.514 10.658L74.0018 16.0308L71.6718 15.375ZM90.3932 16.5903C88.9933 18.9982 86.7426 19.8305 84.6454 18.6113C82.626 17.4371 82.0624 15.0102 83.4713 12.5868L83.5436 12.4625C84.9344 10.0702 87.1541 9.21979 89.3289 10.4842C91.5037 11.7487 91.7931 14.1825 90.4654 16.4661L90.3932 16.5903ZM81.303 11.3469C79.4425 14.547 80.2459 18.2775 83.648 20.2554C87.019 22.2153 90.6583 21.0679 92.546 17.8212L92.6182 17.6969C94.5149 14.4347 93.5951 10.7613 90.2862 8.83757C86.9929 6.92286 83.2629 7.97595 81.3753 11.2226L81.303 11.3469ZM94.0111 28.872C91.8125 26.5117 91.8519 23.9629 94.2781 21.7029L100.12 16.2615L101.766 18.0284L96.0559 23.347C94.3285 24.9561 94.1323 26.1732 95.4343 27.5709C96.6995 28.9291 97.9448 29.0497 99.8964 27.2319L105.487 22.0238L107.133 23.7908L101.397 29.1339C98.9314 31.4309 96.3326 31.3642 94.0111 28.872ZM110.625 28.6013L99.2599 34.7362L100.401 36.8503L104.995 34.3706L105.724 35.7217L102.735 41.1738L103.97 43.4627L107.158 37.6165C108.287 38.8338 109.793 39.4574 111.574 38.4964L111.637 38.4621C113.958 37.2094 114.031 34.9118 112.684 32.4162L110.625 28.6013ZM107.423 35.2563L106.505 33.5555L110.129 31.5992L111.047 33.3C111.776 34.6511 111.769 35.702 110.466 36.4056L110.402 36.4399C109.194 37.092 108.187 36.6709 107.423 35.2563ZM105.678 49.1855L118.417 47.0583L119.101 51.1562C119.577 54.0068 118.625 56.0888 115.952 56.535L115.881 56.547C113.191 56.9962 111.673 55.2535 111.218 52.5276L110.92 50.7459L106.074 51.5551L105.678 49.1855ZM112.63 50.4603L112.919 52.1885C113.181 53.7564 114.087 54.4658 115.494 54.2308L115.566 54.2189C117.08 53.966 117.519 52.977 117.266 51.4626L116.978 49.7344L112.63 50.4603ZM120 60.5525L107.101 59.8945L106.698 67.796L108.61 67.8935L108.891 62.3914L119.877 62.9518L120 60.5525ZM106.339 69.6313L118.803 73.0154L116.687 80.8075L114.857 80.3106L116.343 74.8369L112.926 73.9092L111.733 78.3021L109.99 77.8288L111.183 73.4359L107.54 72.4467L105.973 78.2168L104.143 77.7198L106.339 69.6313ZM113.092 88.7568L103.914 78.697L102.814 80.6692L105.114 83.1095L102.713 87.4167L99.4192 86.7591L98.2054 88.9363L111.562 91.502L113.092 88.7568ZM106.372 84.4518L110.678 89.0444L104.516 87.7808L106.372 84.4518ZM94.0096 93.12C96.4217 90.5532 98.7128 90.6737 100.614 92.212L99.0303 93.8969C97.9712 93.1247 96.8226 92.7643 95.3259 94.357C94.3487 95.3969 94.2352 96.6783 95.1039 97.4947C95.9727 98.3111 96.71 98.186 98.395 96.8941C100.813 94.9277 102.499 94.5047 104.263 96.1622C105.803 97.6095 105.725 100.014 103.882 101.976C101.977 104.003 99.9173 104.348 97.9408 102.838L99.4499 101.232C100.598 101.988 101.551 101.818 102.565 100.739C103.567 99.6725 103.573 98.6372 102.85 97.9569C102.086 97.2394 101.407 97.1966 99.6366 98.6062C97.2558 100.533 95.5478 101.085 93.6654 99.3157C92.0332 97.7818 92.0552 95.1998 94.0096 93.12ZM92.036 102.123C90.26 99.3133 87.7568 98.8015 85.0237 100.529C82.138 102.353 81.5901 104.901 83.3951 107.756L87.5938 114.398L89.6397 113.104L85.5472 106.631C84.1187 104.371 84.4686 103.167 86.0413 102.173C87.6597 101.149 88.8222 101.569 90.0866 103.569L94.266 110.18L96.3119 108.886L92.036 102.123ZM78.2415 104.511L82.0973 116.838L77.9598 118.132C75.2532 118.978 73.0117 118.468 72.2244 115.951L72.2028 115.882C71.5988 113.952 72.4982 112.591 73.9085 111.715L68.777 107.472L71.2595 106.695L76.0418 110.669L77.5072 110.211L75.9487 105.229L78.2415 104.511ZM78.0195 111.849L76.1748 112.426C74.6405 112.905 74.0352 113.814 74.445 115.124L74.4666 115.193C74.9088 116.607 75.939 116.815 77.4043 116.356L79.249 115.779L78.0195 111.849ZM67.9425 120.558L67.0384 107.643L58.6571 108.23L58.7898 110.126L64.7688 109.708L65.0331 113.483L60.4811 113.802L60.6075 115.608L65.1595 115.289L65.4073 118.83L59.7354 119.227L59.8682 121.124L67.9425 120.558ZM48.2778 106.327C51.6921 107.193 52.6971 109.255 52.2728 111.663L50.0316 111.095C50.1937 109.794 49.9524 108.615 47.8338 108.078C46.4506 107.727 45.2747 108.249 44.9816 109.404C44.6886 110.56 45.1554 111.144 47.102 111.992C49.994 113.154 51.1813 114.424 50.5863 116.77C50.0668 118.819 47.9252 119.916 45.3163 119.254C42.6199 118.57 41.3199 116.936 41.6831 114.475L43.8192 115.017C43.7138 116.388 44.3246 117.139 45.7603 117.503C47.1786 117.863 48.0871 117.366 48.3313 116.403C48.5889 115.388 48.2974 114.774 46.2062 113.908C43.3668 112.759 42.0567 111.532 42.6916 109.029C43.2422 106.857 45.5114 105.625 48.2778 106.327ZM35.7101 115.976L41.6511 104.482L34.1917 100.626L33.3192 102.314L38.6405 105.065L36.9039 108.425L32.8527 106.331L32.0217 107.938L36.073 110.032L34.4444 113.183L29.3964 110.574L28.524 112.262L35.7101 115.976ZM32.5924 99.4634L24.1975 109.279L20.9028 106.461C18.7475 104.618 17.9888 102.448 19.703 100.443L19.75 100.388C21.065 98.8509 22.6952 98.8903 24.187 99.6195L25.0557 93.0175L27.0326 94.7082L26.2065 100.871L27.3734 101.869L30.7666 97.9018L32.5924 99.4634ZM26.258 103.173L24.7891 101.917C23.5673 100.872 22.4759 100.842 21.5836 101.885L21.5366 101.94C20.5738 103.066 20.9452 104.049 22.1121 105.047L23.581 106.303L26.258 103.173ZM13.9751 99.5525L24.049 91.4158L22.5241 89.5279L12.4502 97.6645L13.9751 99.5525ZM16.3634 82.8528C15.2647 80.6758 12.9119 80.1434 10.4124 81.4049L10.2834 81.47C7.91287 82.6664 6.82252 84.8758 7.96194 87.1334C9.10136 89.3911 11.4378 89.8912 13.9212 88.6378L14.0502 88.5727C16.5659 87.3031 17.4214 84.9491 16.3634 82.8528ZM18.1051 82.0142C19.8875 85.5457 18.5196 89.1295 15.1976 90.8061L15.0686 90.8712C11.6983 92.5722 7.978 91.4148 6.25259 87.9961C4.51905 84.5613 5.75767 80.9619 9.14411 79.2527L9.27312 79.1876C12.6434 77.4866 16.339 78.5149 18.1051 82.0142ZM9.72968 75.1908C13.0017 74.6073 14.421 72.4827 13.8534 69.2996C13.2542 65.9387 11.1023 64.4692 7.77689 65.0621L0.0413568 66.4414L0.466245 68.8243L8.00617 67.4799C10.638 67.0106 11.6209 67.7895 11.9475 69.6211C12.2836 71.5061 11.4565 72.4242 9.12697 72.8396L1.427 74.2125L1.85189 76.5954L9.72968 75.1908ZM13.2622 57.1462C12.9901 60.658 11.1288 61.9994 8.6836 61.9911L8.86218 59.686C10.1714 59.6243 11.2924 59.1858 11.4613 57.0066C11.5715 55.5839 10.8572 54.514 9.66859 54.4219C8.47997 54.3298 7.9837 54.8892 7.47967 56.9518C6.82687 59.9993 5.77737 61.3855 3.36412 61.1986C1.25703 61.0353 -0.188273 59.1116 0.0196161 56.4282C0.234481 53.6548 1.6235 52.0956 4.11031 52.0346L3.94009 54.2317C2.57125 54.3612 1.93496 55.091 1.82055 56.5677C1.70754 58.0265 2.3513 58.8373 3.34182 58.914C4.38636 58.995 4.94211 58.6032 5.43929 56.3952C6.0879 53.4017 7.07374 51.9018 9.64907 52.1014C11.8822 52.2744 13.4826 54.3007 13.2622 57.1462ZM1.67025 46.4724L14.0032 50.3066L16.352 42.7516L14.5237 42.1831L12.8881 47.4441L2.38347 44.1783L1.67025 46.4724ZM17.9809 39.6925L13.0473 37.0438L4.57686 37.3552L5.83285 35.0157L11.9192 34.9825L8.5499 29.9548L9.66064 27.8859L14.2081 34.9198L19.1258 37.5599L17.9809 39.6925ZM58.7719 48.5232H61.4413L60.7026 59.5435L67.9715 51.2302L69.8591 53.1178L61.5505 60.3825L72.5632 59.6442V62.3137L61.5419 61.5749L69.8587 68.8468L67.9711 70.7344L60.7029 62.4218L61.4413 73.4381H58.7719L59.5103 62.422L52.2416 70.7353L50.354 68.8477L58.672 61.5748L47.6483 62.3137V59.6442L58.6634 60.3826L50.3536 53.1169L52.2412 51.2293L59.5106 59.5433L58.7719 48.5232Z" fill="#0D0D0D"/>
</svg>
